<svg width="72" height="108" viewBox="0 0 72 108" fill="none" xmlns="http://www.w3.org/2000/svg">
<path d="M36 72V108H54C61.4995 108 65.2492 108 67.8779 106.09C68.7268 105.473 69.4734 104.727 70.0902 103.878C72 101.249 72 97.4995 72 90C72 82.5005 72 78.7508 70.0902 76.1221C69.4734 75.2732 68.7268 74.5266 67.8779 73.9098C65.2492 72 61.4995 72 54 72H36Z" fill="url(#paint0_linear_8_4)"/>
<path d="M18 36C10.5005 36 6.7508 36 4.12215 37.9098C3.2732 38.5266 2.52663 39.2732 1.90983 40.1221C0 42.7508 0 46.5005 0 54C0 61.4995 0 65.2492 1.90983 67.8779C2.52663 68.7268 3.2732 69.4734 4.12215 70.0902C6.7508 72 10.5005 72 18 72H36V36H18Z" fill="url(#paint1_linear_8_4)"/>
<path d="M36 18C36 10.5005 36 6.7508 37.9098 4.12215C38.5266 3.2732 39.2732 2.52663 40.1221 1.90983C42.7508 0 46.5005 0 54 0C61.4995 0 65.2492 0 67.8779 1.90983C68.7268 2.52663 69.4734 3.2732 70.0902 4.12215C72 6.7508 72 10.5005 72 18V36H36V18Z" fill="url(#paint2_linear_8_4)"/>
<defs>
<linearGradient id="paint0_linear_8_4" x1="3.00005" y1="5.99994" x2="110.986" y2="104.074" gradientUnits="userSpaceOnUse">
<stop offset="0.055" stop-color="#11998E"/>
<stop offset="1" stop-color="#38EF7D"/>
</linearGradient>
<linearGradient id="paint1_linear_8_4" x1="3.00004" y1="5.99995" x2="110.986" y2="104.074" gradientUnits="userSpaceOnUse">
<stop offset="0.055" stop-color="#11998E"/>
<stop offset="1" stop-color="#38EF7D"/>
</linearGradient>
<linearGradient id="paint2_linear_8_4" x1="42" y1="-21" x2="76.5" y2="26" gradientUnits="userSpaceOnUse">
<stop offset="0.055" stop-color="#11998E"/>
<stop offset="1" stop-color="#38EF7D"/>
</linearGradient>
</defs>
</svg>
